<?xml version="1.0" encoding="UTF-8"?>
<svg width="23px" height="12px" viewBox="0 0 23 12" version="1.1" xmlns="http://www.w3.org/2000/svg"
     xmlns:xlink="http://www.w3.org/1999/xlink">
    <g id="Results-competition_1" transform="translate(-1281.000000, -4409.000000)">
        <g id="Text_2" transform="translate(135.000000, 2893.000000)">
            <g id="Group-Copy-2" transform="translate(915.000000, 1511.000000)">
            <path d="M246.106522,10.9768483 L237.553063,19.7425521 C236.914155,20.3966556 236.092126,21.3363604 236.731033,21.9890112 C237.150486,22.5050112 237.760769,22.7648512 238.399677,22.1107477 L248.026215,12.2452513 C248.366394,11.8972806 248.520935,11.4333843 248.49773,10.9768483 C248.520935,10.5206029 248.366394,10.0568034 248.026215,9.70873589 L238.399677,-0.156787633 C237.760769,-0.811260134 237.092869,-0.403822599 236.731033,0.024420541 C236.092126,0.678514371 236.914155,1.55732191 237.553063,2.21141574 L246.106522,10.9768483 L246.106522,10.9768483 Z"
                      id="path3045-2"
                      transform="translate(242.500000, 11.000000) scale(1, -1) rotate(90.000000) translate(-242.500000, -11.000000) "></path>
            </g>
        </g>
    </g>
</svg>