<?xml version="1.0" encoding="iso-8859-1"?>
<!-- Generator: Adobe Illustrator 19.0.0, SVG Export Plug-In . SVG Version: 6.00 Build 0)  -->
<svg version="1.1" id="Capa_1" xmlns="http://www.w3.org/2000/svg" xmlns:xlink="http://www.w3.org/1999/xlink" x="0px" y="0px"
	 viewBox="0 0 512 512" style="enable-background:new 0 0 512 512;" xml:space="preserve">
<g>
	<g>
		<path d="M497.001,185.295c-61.081,0-35.573-77.546-0.371-48.977c0,0,6.632-43.875-36.222-43.875
			c-55.099,0-80.607,92.852-129.074,92.852c-61.081,0-35.573-77.546-0.371-48.977c0,0,6.632-43.875-36.222-43.875
			c-55.099,0-80.607,92.852-129.074,92.852c-61.081,0-35.573-77.546-0.371-48.977c0,0,6.632-43.875-36.222-43.875
			c-55.099,0-80.607,92.852-129.074,92.852v30h512v-30H497.001z"/>
	</g>
</g>
<g>
	<g>
		<path d="M497,389.557c-61.08,0-35.572-77.547-0.37-48.977c0,0,6.632-43.875-36.222-43.875c-55.099,0-80.607,92.852-129.074,92.852
			c-61.081,0-35.573-77.546-0.371-48.977c0,0,6.632-43.875-36.222-43.875c-55.099,0-80.607,92.852-129.074,92.852
			c-61.081,0-35.573-77.546-0.371-48.977c0,0,6.632-43.875-36.222-43.875c-55.099,0-80.607,92.852-129.074,92.852v30h512v-30H497z"
			/>
	</g>
</g>
<g>
</g>
<g>
</g>
<g>
</g>
<g>
</g>
<g>
</g>
<g>
</g>
<g>
</g>
<g>
</g>
<g>
</g>
<g>
</g>
<g>
</g>
<g>
</g>
<g>
</g>
<g>
</g>
<g>
</g>
</svg>
