<?xml version="1.0" encoding="UTF-8"?>
<svg width="323px" height="356px" viewBox="0 0 323 356" version="1.1" xmlns="http://www.w3.org/2000/svg" xmlns:xlink="http://www.w3.org/1999/xlink">
    <!-- Generator: Sketch 51.2 (57519) - http://www.bohemiancoding.com/sketch -->
    <title>trophy</title>
    <desc>Created with Sketch.</desc>
    <defs></defs>
    <g id="Quck-Start-Templates" stroke="none" stroke-width="1" fill="none" fill-rule="evenodd" opacity="0.100000001">
        <g id="trophy" transform="translate(140.489342, 181.489342) rotate(13.000000) translate(-140.489342, -181.489342) translate(-22.510658, 18.489342)" fill="#000000" fill-rule="nonzero">
            <path d="M325.107281,62.0292185 C324.783432,34.4325225 310.66237,19.2335413 285.344408,19.2335413 C275.545135,19.2335413 266.10273,21.5146903 259.929925,23.4179765 C260.544602,12.1379738 260.554127,5.17513465 260.554127,4.82902489 L260.554762,0 L64.5686727,0 L64.5686727,4.82838983 C64.5686727,4.99350641 64.5851826,12.0662116 65.2068446,23.423692 C59.0346744,21.5191358 49.58338,19.2335413 39.7745823,19.2335413 C14.4572545,19.2335413 0.335557609,34.4318874 0.011709171,62.0292185 C-0.307059291,89.1781946 5.88416084,113.344911 18.4120154,133.859376 C30.7119061,154.000424 46.4331602,166.137127 57.456072,172.770368 C75.1108919,183.396255 92.7555517,185.626599 104.449655,185.626599 C107.332541,185.626599 110.110018,185.490696 112.70779,185.222699 C112.879875,185.204917 113.039259,185.184595 113.207533,185.166178 C118.861546,191.255804 124.956881,196.133729 131.470045,199.758673 C136.271257,202.430387 139.610706,207.089849 140.75497,212.445342 C134.281176,214.4604 129.567594,220.509382 129.567594,227.637973 C129.567594,234.9266 134.497075,241.082273 141.194388,242.955711 L141.194388,263.220596 L115.069344,263.220596 L115.069344,284.368854 L89.2884685,284.368854 L89.2884685,325.118991 L235.833696,325.118991 L235.833696,284.368854 L210.052821,284.368854 L210.052821,263.220596 L183.927777,263.220596 L183.927777,242.955711 C190.625725,241.081638 195.555206,234.9266 195.555206,227.637973 C195.555206,220.508747 190.841624,214.4604 184.36783,212.445342 C185.512094,207.089849 188.850908,202.431022 193.652755,199.758673 C200.150044,196.143255 206.287289,191.238658 211.927332,185.168718 C213.925667,185.390356 216.922218,185.625964 220.6687,185.625964 C220.66997,185.625964 220.669335,185.625964 220.67124,185.625964 C232.364073,185.625964 250.008098,183.39435 267.661648,172.769733 C278.683925,166.135857 294.405814,153.999789 306.705705,133.858741 C319.235464,113.344911 325.426049,89.1775595 325.107281,62.0292185 Z M250.818989,9.65677966 C250.775809,11.422892 250.70723,13.6430749 250.60182,16.2417559 L74.5406646,16.2417559 C74.4314451,13.64371 74.3584205,11.4203517 74.3114307,9.65677966 L250.818989,9.65677966 Z M257.386127,53.9924865 C263.927866,51.8148529 272.406345,49.6188023 280.001543,49.6188023 C286.369928,49.6188023 290.955241,51.1747086 293.630483,54.2433367 C296.705138,57.7704809 297.696368,63.6956258 296.574963,71.8561953 C291.905831,105.848619 277.168187,132.382853 255.075374,146.569542 C247.379846,151.511609 239.091866,153.553339 232.146269,154.278582 C246.838193,123.394795 253.948889,84.6457445 257.386127,53.9924865 Z M72.7042535,87.6273689 C77.4533956,113.102952 84.0103739,134.979629 92.1942144,152.649008 C92.4475782,153.197703 92.705387,153.738142 92.9619257,154.278582 C86.0188692,153.551433 77.7359692,151.510339 70.0436163,146.570813 C47.9514379,132.383488 33.213159,105.849889 28.5440265,71.8574654 C27.4232569,63.6962609 28.4138521,57.7704809 31.4891423,54.2446068 C34.1643844,51.1759787 38.7503323,49.6207075 45.1180816,49.6207075 C52.7196299,49.6207075 61.2057289,51.8199334 67.7500074,53.9988372 C68.9190367,64.4532569 70.517324,75.896471 72.7042535,87.6273689 Z M104.449655,175.96982 C93.9798258,175.96982 78.190627,173.978895 62.435718,164.496758 C46.3226707,154.799334 8.92452617,125.412393 9.66747259,62.1428949 C9.93036132,39.7676932 19.7785288,28.890956 39.7745823,28.890956 C50.4685657,28.890956 61.0304698,32.1151748 65.8583515,33.8158755 C66.0990153,37.0553358 66.368889,40.3043221 66.6673376,43.539972 C60.1046443,41.6119184 52.3722866,39.9620227 45.1180816,39.9620227 C35.8356963,39.9620227 28.8018353,42.6311957 24.2108074,47.8958743 C19.2203665,53.6197041 17.45952,62.1232079 18.9771627,73.1701422 C21.5768401,92.0956776 27.0098739,108.823257 35.1257698,122.887379 C42.8733674,136.313898 52.8663142,147.015992 64.8258465,154.695183 C76.5072501,162.197192 89.1417842,164.089047 98.1542957,164.27004 C98.1847755,164.323385 98.2158904,164.37419 98.2463702,164.426901 C98.7403979,165.292492 99.2395054,166.143478 99.743693,166.983667 C99.9005373,167.245949 100.058651,167.506325 100.216766,167.766066 C100.697458,168.556085 101.181961,169.338484 101.671544,170.105006 C101.855693,170.393325 102.042382,170.674658 102.227801,170.960437 C102.561174,171.472933 102.896453,171.980984 103.234271,172.483319 C103.56066,172.969143 103.888318,173.449887 104.217881,173.925549 C104.541095,174.391051 104.864943,174.854013 105.191332,175.310623 C105.344366,175.525275 105.49486,175.748182 105.647895,175.960294 C105.259276,175.966644 104.859863,175.96982 104.449655,175.96982 Z M226.178568,294.026904 L226.178568,315.462211 L98.9455019,315.462211 L98.9455019,294.026904 L115.069979,294.026904 L210.053456,294.026904 L226.178568,294.026904 Z M183.929047,272.878645 L200.397057,272.878645 L200.397057,284.369489 L124.726377,284.369489 L124.726377,272.878645 L141.195023,272.878645 L183.929047,272.878645 Z M150.850786,263.221231 L150.850786,243.545685 L174.272648,243.545685 L174.272648,263.221231 L150.850786,263.221231 Z M185.900077,227.637973 C185.900077,231.084464 183.095931,233.88827 179.650438,233.88827 L145.473632,233.88827 C142.027504,233.88827 139.223993,231.084464 139.223993,227.637973 C139.223993,224.191482 142.027504,221.387675 145.473632,221.387675 L179.650438,221.387675 C183.096566,221.387675 185.900077,224.191482 185.900077,227.637973 Z M210.051551,172.43569 C209.998211,172.504912 209.944871,172.574134 209.891532,172.643356 C209.416554,173.258097 208.937766,173.857597 208.456439,174.448842 C208.338329,174.593001 208.222125,174.739701 208.10338,174.883225 C207.574428,175.52591 207.04103,176.154623 206.505093,176.768095 C206.479058,176.797308 206.454928,176.827791 206.428893,176.857004 C201.044754,182.999975 195.167223,187.865199 188.958858,191.319946 C181.30651,195.577413 176.103345,203.139118 174.672062,211.73026 L150.452008,211.73026 C149.02009,203.138483 143.816925,195.577413 136.164577,191.319946 C130.172746,187.986496 124.761302,183.530254 119.872461,178.205244 L118.691367,176.857639 C113.89079,171.382119 109.365802,164.748243 105.242766,157.142084 L103.979758,154.810765 C83.2172627,114.689341 76.937143,56.7010335 75.0435822,25.8985355 L250.115413,25.8985355 C250.034768,27.2385201 249.946503,28.622324 249.848714,30.0594733 C249.844269,30.126155 249.839189,30.1947419 249.834744,30.2614236 C249.728064,31.8186 249.613765,33.3802218 249.492481,34.9431137 C249.489306,34.9888383 249.485496,35.0345629 249.482321,35.0809226 C249.096242,40.03442 248.639045,45.0063342 248.117712,49.9191875 L247.802119,52.8900158 C244.293761,84.3434541 236.883981,124.414073 221.258612,154.597384 L219.878763,157.141449 C216.808553,162.803678 213.515459,167.926102 210.051551,172.43569 Z M262.683907,164.496758 C246.927728,173.97953 231.141704,175.96982 220.67251,175.96982 C220.671875,175.96982 220.670605,175.96982 220.66997,175.96982 C220.259127,175.96982 219.859714,175.966644 219.47046,175.960294 C219.47681,175.951403 219.48316,175.941877 219.48951,175.932986 C220.116252,175.068029 220.733469,174.190371 221.341161,173.300647 C221.415456,173.192051 221.488481,173.080914 221.562775,172.972319 C222.076488,172.215323 222.58258,171.448166 223.082958,170.673388 C223.211862,170.474613 223.340767,170.275203 223.468401,170.075158 C224.022118,169.205755 224.570121,168.330638 225.107328,167.440278 C225.191783,167.301199 225.273697,167.15831 225.357517,167.017961 C225.79757,166.282557 226.232543,165.540167 226.661801,164.790792 C226.76213,164.615514 226.865635,164.447858 226.966599,164.27131 C235.979111,164.090317 248.613645,162.198462 260.295048,154.696453 C272.254581,147.015992 282.247528,136.313898 289.995125,122.88865 C298.110386,108.824527 303.54342,92.0969477 306.143732,73.1714123 C307.660105,62.123843 305.899893,53.6203392 300.910087,47.8971445 C296.319695,42.6318308 289.285199,39.9626578 280.002813,39.9626578 C272.749243,39.9626578 265.015616,41.6112833 258.453557,43.539972 C258.757721,40.2408157 259.018705,37.0762929 259.242224,34.0686309 C259.248573,33.9848025 259.255558,33.900339 259.261908,33.8171457 C264.09106,32.1158098 274.652329,28.8922261 285.345678,28.8922261 C305.341731,28.8922261 315.189899,39.7689633 315.453422,62.1428949 C316.193829,125.412393 278.796954,154.798699 262.683907,164.496758 Z" id="Shape"></path>
            <path d="M122.166077,156.769705 L114.014331,162.186189 C116.797478,166.447777 119.788592,170.319653 122.904869,173.693708 L130.047596,166.983146 C127.302319,164.011104 124.650755,160.574256 122.166077,156.769705 Z" id="Shape"></path>
            <path d="M101.144128,102.434751 L91.7459071,104.572592 C96.3683153,124.778419 102.539344,141.74082 110.086573,154.988231 L118.468016,150.23972 C111.386071,137.809012 105.557348,121.725262 101.144128,102.434751 Z" id="Shape"></path>
            <polygon id="Shape" points="281.47288 211.89136 281.465931 202.284902 273.356831 202.289956 273.351146 194.180658 263.744923 194.186975 263.750608 202.296905 255.641508 202.30259 255.647825 211.909048 263.756925 211.903363 263.76261 220.01203 273.368833 220.005712 273.363148 211.896414"></polygon>
            <polygon id="Shape" points="71.2589569 262.200122 71.2488792 252.621908 64.4640746 252.628836 64.4571462 245.843401 54.8789319 245.853479 54.8858603 252.638284 48.0997959 252.645212 48.1105035 262.223426 54.8953081 262.216498 54.9022365 269.002562 64.4804508 268.992485 64.4735224 262.20705"></polygon>
            <rect id="Rectangle-path" x="31.1757937" y="182.601077" width="8.90736962" height="9.79810658"></rect>
            <rect id="Rectangle-path" x="89.9644331" y="211.995397" width="8.90736962" height="9.79810658"></rect>
            <rect id="Rectangle-path" x="236.936032" y="240.49898" width="8.90736962" height="9.79810658"></rect>
        </g>
    </g>
</svg>