<?xml version="1.0" encoding="UTF-8"?>
<svg width="1316px" height="2389px" viewBox="0 0 1316 2389" version="1.1" xmlns="http://www.w3.org/2000/svg" xmlns:xlink="http://www.w3.org/1999/xlink">
    <!-- Generator: Sketch 51.2 (57519) - http://www.bohemiancoding.com/sketch -->
    <title>Group 2</title>
    <desc>Created with Sketch.</desc>
    <defs></defs>
    <g id="Quck-Start-Templates" stroke="none" stroke-width="1" fill="none" fill-rule="evenodd">
        <g id="Results-competition_2" transform="translate(-40.000000, -1085.000000)">
            <g id="Features-#7" transform="translate(0.000000, 1016.000000)">
                <g id="Group-2" transform="translate(21.000000, 26.000000)">
                    <g id="Pattern">
                        <path d="M706.586403,535.178669 C709.11978,535.178669 711.173487,533.123874 711.173487,530.589157 C711.173487,528.05444 709.11978,525.999645 706.586403,525.999645 C704.053026,525.999645 701.999318,528.05444 701.999318,530.589157 C701.999318,533.123874 704.053026,535.178669 706.586403,535.178669 Z M942.972807,804.129234 C943.346337,806.050876 945.207766,807.30571 947.130425,806.931983 C949.053084,806.558256 950.308902,804.697491 949.935373,802.775848 C949.561843,800.854206 947.700415,799.599372 945.777755,799.973099 C943.855096,800.346826 942.599278,802.207591 942.972807,804.129234 Z" id="Oval-2" stroke="#1A6FFF" stroke-width="4" opacity="0.0441406265" transform="translate(826.000222, 666.498741) rotate(-35.000000) translate(-826.000222, -666.498741) "></path>
                        <path d="M535.882737,329.773992 C538.027935,329.773992 539.766962,328.033632 539.766962,325.88679 C539.766962,323.739947 538.027935,321.999587 535.882737,321.999587 C533.737539,321.999587 531.998512,323.739947 531.998512,325.88679 C531.998512,328.033632 533.737539,329.773992 535.882737,329.773992 Z M736.047945,557.568421 C736.36424,559.195618 737.940763,560.258118 739.569208,559.94158 C741.197652,559.625042 742.26136,558.049334 741.945064,556.422137 C741.628769,554.794939 740.052246,553.73244 738.423802,554.048977 C736.795357,554.365515 735.73165,555.941223 736.047945,557.568421 Z" id="Oval-2" stroke="#1A6FFF" stroke-width="4" opacity="0.100000001" transform="translate(636.999621, 440.998479) rotate(-59.000000) translate(-636.999621, -440.998479) "></path>
                        <path d="M391.181202,193.33695 C392.938221,193.33695 394.362567,191.918338 394.362567,190.168391 C394.362567,188.418443 392.938221,186.999831 391.181202,186.999831 C389.424182,186.999831 387.999837,188.418443 387.999837,190.168391 C387.999837,191.918338 389.424182,193.33695 391.181202,193.33695 Z M555.137601,379.018123 C555.396662,380.350875 556.682733,381.22212 558.01012,380.964102 C559.337508,380.706083 560.203558,379.416509 559.944497,378.083757 C559.685436,376.751005 558.399366,375.879761 557.071978,376.137779 C555.744591,376.395797 554.87854,377.685371 555.137601,379.018123 Z" id="Oval-2" stroke="#1A6FFF" stroke-width="4" opacity="0.100000001" transform="translate(473.995070, 284.004598) rotate(-358.000000) translate(-473.995070, -284.004598) "></path>
                        <circle id="Oval-2" stroke="#1A6FFF" stroke-width="4" opacity="0.100000001" transform="translate(223.500000, 217.500000) rotate(-269.000000) translate(-223.500000, -217.500000) " cx="223.5" cy="217.5" r="3.5"></circle>
                        <path d="M1.5920098,154.178532 C4.12798154,154.178532 6.18379283,152.123688 6.18379283,149.588909 C6.18379283,147.054131 4.12798154,144.999287 1.5920098,144.999287 C-0.943961943,144.999287 -2.99977323,147.054131 -2.99977323,149.588909 C-2.99977323,152.123688 -0.943961943,154.178532 1.5920098,154.178532 Z M560.54209,247.038801 C558.494161,246.895596 556.717951,248.438898 556.574813,250.485863 C556.431675,252.532829 557.975813,254.308312 560.023742,254.451518 C562.071671,254.594723 563.847881,253.05142 563.991019,251.004455 C564.134156,248.95749 562.590018,247.182006 560.54209,247.038801 Z M131.564539,306.044933 C133.090163,304.671255 133.213864,302.321488 131.840832,300.796582 C130.4678,299.271676 128.117976,299.149081 126.592352,300.522759 C125.066728,301.896437 124.943027,304.246204 126.316059,305.77111 C127.689091,307.296016 130.038916,307.418611 131.564539,306.044933 Z" id="Oval-2" stroke="#1A6FFF" stroke-width="4" opacity="0.100000001" transform="translate(280.500222, 225.999678) rotate(-146.000000) translate(-280.500222, -225.999678) "></path>
                        <path d="M56.938726,469.856111 C59.6652679,469.856111 61.8755669,467.649056 61.8755669,464.926516 C61.8755669,462.203976 59.6652679,459.996921 56.938726,459.996921 C54.2121841,459.996921 52.0018851,462.203976 52.0018851,464.926516 C52.0018851,467.649056 54.2121841,469.856111 56.938726,469.856111 Z M196.67561,632.971874 C198.315879,631.494969 198.45007,628.969951 196.975332,627.332089 C195.500594,625.694226 192.975382,625.563745 191.335112,627.040651 C189.694842,628.517556 189.560652,631.042574 191.03539,632.680436 C192.510128,634.318299 195.03534,634.44878 196.67561,632.971874 Z" id="Oval-2" stroke="#1A6FFF" stroke-width="4" opacity="0.100000001" transform="translate(125.000573, 546.998234) rotate(-207.000000) translate(-125.000573, -546.998234) "></path>
                        <path d="M267.891772,353.761573 C270.039391,353.761573 271.78038,352.023834 271.78038,349.880225 C271.78038,347.736616 270.039391,345.998878 267.891772,345.998878 C265.744153,345.998878 264.003164,347.736616 264.003164,349.880225 C264.003164,352.023834 265.744153,353.761573 267.891772,353.761573 Z M377.957655,482.191801 C379.249648,481.028485 379.355722,479.040019 378.194578,477.750438 C377.033434,476.460856 375.044773,476.358498 373.75278,477.521814 C372.460787,478.68513 372.354712,480.673596 373.515856,481.963177 C374.677001,483.252758 376.665661,483.355117 377.957655,482.191801 Z" id="Oval-2" stroke="#1A6FFF" stroke-width="4" opacity="0.100000001" transform="translate(321.501850, 414.500193) rotate(-129.000000) translate(-321.501850, -414.500193) "></path>
                        <text id="+" opacity="0.100000001" transform="translate(230.000000, 344.000000) rotate(-335.000000) translate(-230.000000, -344.000000) " font-family="AmericanTypewriter, American Typewriter" font-size="50" font-weight="normal" letter-spacing="5.357144" fill="#006CFF">
                            <tspan x="224" y="360">+</tspan>
                        </text>
                        <text id="+" opacity="0.100000001" transform="translate(439.000000, 567.000000) rotate(-82.000000) translate(-439.000000, -567.000000) " font-family="AmericanTypewriter, American Typewriter" font-size="50" font-weight="normal" letter-spacing="5.357144" fill="#006CFF">
                            <tspan x="433" y="583">+</tspan>
                        </text>
                        <text id="+" opacity="0.100000001" transform="translate(242.000000, 631.000000) rotate(-269.000000) translate(-242.000000, -631.000000) " font-family="AmericanTypewriter, American Typewriter" font-size="50" font-weight="normal" letter-spacing="5.357144" fill="#006CFF">
                            <tspan x="236" y="647">+</tspan>
                        </text>
                        <text id="+" opacity="0.100000001" transform="translate(175.000000, 364.000000) rotate(-79.000000) translate(-175.000000, -364.000000) " font-family="AmericanTypewriter, American Typewriter" font-size="50" font-weight="normal" letter-spacing="5.357144" fill="#006CFF">
                            <tspan x="169" y="380">+</tspan>
                        </text>
                        <text id="+" opacity="0.100000001" transform="translate(385.500000, 553.000000) rotate(-29.000000) translate(-385.500000, -553.000000) " font-family="AmericanTypewriter, American Typewriter" font-size="50" font-weight="normal" letter-spacing="5.357144" fill="#006CFF">
                            <tspan x="379" y="569">+</tspan>
                        </text>
                        <text id="+" opacity="0.100000001" transform="translate(411.000000, 343.000000) rotate(-101.000000) translate(-411.000000, -343.000000) " font-family="AmericanTypewriter, American Typewriter" font-size="50" font-weight="normal" letter-spacing="5.357144" fill="#006CFF">
                            <tspan x="405" y="359">+</tspan>
                        </text>
                    </g>
                    <g id="Pattern-Copy" transform="translate(363.000000, 589.000000)">
                        <path d="M813.271038,652.550852 C816.182357,652.550852 818.542448,650.18892 818.542448,647.275329 C818.542448,644.361738 816.182357,641.999806 813.271038,641.999806 C810.359719,641.999806 807.999628,644.361738 807.999628,647.275329 C807.999628,650.18892 810.359719,652.550852 813.271038,652.550852 Z M1084.92179,961.702422 C1085.35104,963.910745 1087.49062,965.352694 1089.70066,964.923104 C1091.91071,964.493515 1093.35433,962.355064 1092.92507,960.146741 C1092.49582,957.938418 1090.35624,956.496469 1088.14619,956.926058 C1085.93615,957.355648 1084.49253,959.494099 1084.92179,961.702422 Z" id="Oval-2" stroke="#1A6FFF" stroke-width="4" opacity="0.462388394" transform="translate(950.500121, 803.499314) rotate(-35.000000) translate(-950.500121, -803.499314) "></path>
                        <path d="M616.47819,415.95104 C618.95025,415.95104 620.95425,413.947414 620.95425,411.475816 C620.95425,409.004218 618.95025,407.000592 616.47819,407.000592 C614.006131,407.000592 612.002131,409.004218 612.002131,411.475816 C612.002131,413.947414 614.006131,415.95104 616.47819,415.95104 Z M847.145564,678.204211 C847.510052,680.079343 849.32534,681.304016 851.200121,680.939595 C853.074903,680.575175 854.299237,678.759659 853.934748,676.884528 C853.57026,675.009396 851.754972,673.784723 849.880191,674.149144 C848.005409,674.513564 846.781075,676.32908 847.145564,678.204211 Z" id="Oval-2" stroke="#1A6FFF" stroke-width="4" opacity="0.100000001" transform="translate(733.000542, 544.002179) rotate(-59.000000) translate(-733.000542, -544.002179) "></path>
                        <path d="M539.682177,65.3335372 C542.818305,65.3335372 545.360639,62.7961596 545.360639,59.6661457 C545.360639,56.5361319 542.818305,53.9987543 539.682177,53.9987543 C536.546049,53.9987543 534.003715,56.5361319 534.003715,59.6661457 C534.003715,62.7961596 536.546049,65.3335372 539.682177,65.3335372 Z M832.321254,397.449061 C832.783655,399.827909 835.083182,401.382226 837.457392,400.920726 C839.831602,400.459227 841.381429,398.156671 840.919028,395.777823 C840.456627,393.398976 838.157099,391.844658 835.782889,392.306158 C833.40868,392.767657 831.858853,395.070214 832.321254,397.449061 Z" id="Oval-2" stroke="#1A6FFF" stroke-width="4" opacity="0.100000001" transform="translate(687.502168, 227.500303) rotate(-127.000000) translate(-687.502168, -227.500303) "></path>
                        <path d="M449.662399,259.283988 C451.685127,259.283988 453.324871,257.653395 453.324871,255.641956 C453.324871,253.630518 451.685127,251.999925 449.662399,251.999925 C447.639672,251.999925 445.999927,253.630518 445.999927,255.641956 C445.999927,257.653395 447.639672,259.283988 449.662399,259.283988 Z M638.417691,472.711134 C638.715928,474.245434 640.194552,475.24881 641.720288,474.952237 C643.246025,474.655664 644.241109,473.171448 643.942872,471.637148 C643.644634,470.102848 642.166011,469.099473 640.640274,469.396046 C639.114538,469.692619 638.119453,471.176835 638.417691,472.711134 Z" id="Oval-2" stroke="#1A6FFF" stroke-width="4" opacity="0.100000001" transform="translate(544.997806, 363.502055) rotate(-358.000000) translate(-544.997806, -363.502055) "></path>
                        <circle id="Oval-2" stroke="#1A6FFF" stroke-width="4" opacity="0.493024554" transform="translate(257.000000, 287.000000) rotate(-269.000000) translate(-257.000000, -287.000000) " cx="257" cy="287" r="4"></circle>
                        <path d="M2.28099886,214.536398 C5.19714278,214.536398 7.56114451,212.177144 7.56114451,209.266857 C7.56114451,206.356569 5.19714278,203.997315 2.28099886,203.997315 C-0.635145062,203.997315 -2.99914679,206.356569 -2.99914679,209.266857 C-2.99914679,212.177144 -0.635145062,214.536398 2.28099886,214.536398 Z M645.023852,321.153229 C642.668914,320.988555 640.626634,322.760281 640.462292,325.110489 C640.297949,327.460697 642.073777,329.499411 644.428715,329.664084 C646.783652,329.828758 648.825932,328.057032 648.990275,325.706824 C649.154617,323.356616 647.378789,321.317902 645.023852,321.153229 Z M151.73355,388.900682 C153.487883,387.321074 153.632097,384.621236 152.055661,382.870427 C150.479225,381.119617 147.779103,380.980831 146.02477,382.560439 C144.270437,384.140048 144.126223,386.839885 145.702659,388.590695 C147.279095,390.341505 149.979217,390.480291 151.73355,388.900682 Z" id="Oval-2" stroke="#1A6FFF" stroke-width="4" opacity="0.100000001" transform="translate(323.000837, 296.998788) rotate(-146.000000) translate(-323.000837, -296.998788) "></path>
                        <path d="M65.682512,577.329508 C68.8199591,577.329508 71.3633626,574.792702 71.3633626,571.663393 C71.3633626,568.534084 68.8199591,565.997277 65.682512,565.997277 C62.5450649,565.997277 60.0016615,568.534084 60.0016615,571.663393 C60.0016615,574.792702 62.5450649,577.329508 65.682512,577.329508 Z M226.475064,764.816062 C228.362531,763.116578 228.518496,760.212749 226.823421,758.330177 C225.128345,756.447605 222.224121,756.299183 220.336653,757.998666 C218.449186,759.698149 218.293221,762.601979 219.988296,764.484551 C221.683371,766.367123 224.587596,766.515545 226.475064,764.816062 Z" id="Oval-2" stroke="#1A6FFF" stroke-width="4" opacity="0.100000001" transform="translate(144.000504, 665.998439) rotate(-207.000000) translate(-144.000504, -665.998439) "></path>
                        <path d="M308.454386,443.955677 C310.919535,443.955677 312.917933,441.951608 312.917933,439.479464 C312.917933,437.00732 310.919535,435.003251 308.454386,435.003251 C305.989237,435.003251 303.990839,437.00732 303.990839,439.479464 C303.990839,441.951608 305.989237,443.955677 308.454386,443.955677 Z M434.80514,592.069444 C436.288158,590.734129 436.404823,588.446008 435.065719,586.958783 C433.726615,585.471557 431.438833,585.348409 429.955816,586.683724 C428.472798,588.019039 428.356133,590.30716 429.695237,591.794386 C431.034341,593.281611 433.322123,593.404759 434.80514,592.069444 Z" id="Oval-2" stroke="#1A6FFF" stroke-width="4" opacity="0.100000001" transform="translate(369.994644, 513.999441) rotate(-129.000000) translate(-369.994644, -513.999441) "></path>
                        <text id="+" opacity="0.100000001" transform="translate(265.000000, 433.000000) rotate(-335.000000) translate(-265.000000, -433.000000) " font-family="AmericanTypewriter, American Typewriter" font-size="50" font-weight="normal" letter-spacing="5.357144" fill="#006CFF">
                            <tspan x="258" y="449">+</tspan>
                        </text>
                        <text id="+" opacity="0.100000001" transform="translate(240.000000, 232.000000) rotate(-195.000000) translate(-240.000000, -232.000000) " font-family="AmericanTypewriter, American Typewriter" font-size="50" font-weight="normal" letter-spacing="5.357144" fill="#006CFF">
                            <tspan x="231" y="248">+</tspan>
                        </text>
                        <text id="+" opacity="0.365959821" transform="translate(505.000000, 689.000000) rotate(-82.000000) translate(-505.000000, -689.000000) " font-family="AmericanTypewriter, American Typewriter" font-size="50" font-weight="normal" letter-spacing="5.357144" fill="#006CFF">
                            <tspan x="498" y="705">+</tspan>
                        </text>
                        <text id="+" opacity="0.100000001" transform="translate(279.000000, 763.000000) rotate(-269.000000) translate(-279.000000, -763.000000) " font-family="AmericanTypewriter, American Typewriter" font-size="50" font-weight="normal" letter-spacing="5.357144" fill="#006CFF">
                            <tspan x="272" y="779">+</tspan>
                        </text>
                        <text id="+" opacity="0.100000001" transform="translate(201.000000, 456.000000) rotate(-79.000000) translate(-201.000000, -456.000000) " font-family="AmericanTypewriter, American Typewriter" font-size="50" font-weight="normal" letter-spacing="5.357144" fill="#006CFF">
                            <tspan x="194" y="472">+</tspan>
                        </text>
                        <text id="+" opacity="0.100000001" transform="translate(443.500000, 673.000000) rotate(-29.000000) translate(-443.500000, -673.000000) " font-family="AmericanTypewriter, American Typewriter" font-size="50" font-weight="normal" letter-spacing="5.357144" fill="#006CFF">
                            <tspan x="436" y="689">+</tspan>
                        </text>
                        <text id="+" opacity="0.100000001" transform="translate(473.000000, 431.000000) rotate(-101.000000) translate(-473.000000, -431.000000) " font-family="AmericanTypewriter, American Typewriter" font-size="50" font-weight="normal" letter-spacing="5.357144" fill="#006CFF">
                            <tspan x="466" y="447">+</tspan>
                        </text>
                    </g>
                    <g id="Pattern-Copy-3" transform="translate(1051.092349, 2270.676438) rotate(134.000000) translate(-1051.092349, -2270.676438) translate(556.592349, 1580.176438)">
                        <path d="M642.271038,652.550852 C645.182357,652.550852 647.542448,650.18892 647.542448,647.275329 C647.542448,644.361738 645.182357,641.999806 642.271038,641.999806 C639.359719,641.999806 636.999628,644.361738 636.999628,647.275329 C636.999628,650.18892 639.359719,652.550852 642.271038,652.550852 Z M913.921785,961.702422 C914.35104,963.910745 916.490616,965.352694 918.700662,964.923104 C920.910708,964.493515 922.354325,962.355064 921.92507,960.146741 C921.495816,957.938418 919.35624,956.496469 917.146194,956.926058 C914.936147,957.355648 913.492531,959.494099 913.921785,961.702422 Z" id="Oval-2" stroke="#1A6FFF" stroke-width="4" opacity="0.462388394" transform="translate(779.500121, 803.499314) rotate(-35.000000) translate(-779.500121, -803.499314) "></path>
                        <path d="M368.682177,65.3335372 C371.818305,65.3335372 374.360639,62.7961596 374.360639,59.6661457 C374.360639,56.5361319 371.818305,53.9987543 368.682177,53.9987543 C365.546049,53.9987543 363.003715,56.5361319 363.003715,59.6661457 C363.003715,62.7961596 365.546049,65.3335372 368.682177,65.3335372 Z M661.321254,397.449061 C661.783655,399.827909 664.083182,401.382226 666.457392,400.920726 C668.831602,400.459227 670.381429,398.156671 669.919028,395.777823 C669.456627,393.398976 667.157099,391.844658 664.782889,392.306158 C662.40868,392.767657 660.858853,395.070214 661.321254,397.449061 Z" id="Oval-2" stroke="#1A6FFF" stroke-width="4" opacity="0.100000001" transform="translate(516.502168, 227.500303) rotate(-127.000000) translate(-516.502168, -227.500303) "></path>
                        <path d="M278.662399,259.283988 C280.685127,259.283988 282.324871,257.653395 282.324871,255.641956 C282.324871,253.630518 280.685127,251.999925 278.662399,251.999925 C276.639672,251.999925 274.999927,253.630518 274.999927,255.641956 C274.999927,257.653395 276.639672,259.283988 278.662399,259.283988 Z M467.417691,472.711134 C467.715928,474.245434 469.194552,475.24881 470.720288,474.952237 C472.246025,474.655664 473.241109,473.171448 472.942872,471.637148 C472.644634,470.102848 471.166011,469.099473 469.640274,469.396046 C468.114538,469.692619 467.119453,471.176835 467.417691,472.711134 Z" id="Oval-2" stroke="#1A6FFF" stroke-width="4" opacity="0.100000001" transform="translate(373.997806, 363.502055) rotate(-358.000000) translate(-373.997806, -363.502055) "></path>
                        <path d="M736.188739,1164.2335 C739.326186,1164.2335 741.86959,1161.69669 741.86959,1158.56738 C741.86959,1155.43807 739.326186,1152.90127 736.188739,1152.90127 C733.051292,1152.90127 730.507888,1155.43807 730.507888,1158.56738 C730.507888,1161.69669 733.051292,1164.2335 736.188739,1164.2335 Z M896.981291,1351.72005 C898.868758,1350.02057 899.024723,1347.11674 897.329648,1345.23417 C895.634572,1343.3516 892.730348,1343.20317 890.84288,1344.90266 C888.955412,1346.60214 888.799448,1349.50597 890.494523,1351.38854 C892.189598,1353.27111 895.093823,1353.41954 896.981291,1351.72005 Z" id="Oval-2" stroke="#1A6FFF" stroke-width="4" opacity="0.100000001" transform="translate(814.506731, 1252.902430) rotate(-207.000000) translate(-814.506731, -1252.902430) "></path>
                        <path d="M137.454386,443.955677 C139.919535,443.955677 141.917933,441.951608 141.917933,439.479464 C141.917933,437.00732 139.919535,435.003251 137.454386,435.003251 C134.989237,435.003251 132.990839,437.00732 132.990839,439.479464 C132.990839,441.951608 134.989237,443.955677 137.454386,443.955677 Z M263.80514,592.069444 C265.288158,590.734129 265.404823,588.446008 264.065719,586.958783 C262.726615,585.471557 260.438833,585.348409 258.955816,586.683724 C257.472798,588.019039 257.356133,590.30716 258.695237,591.794386 C260.034341,593.281611 262.322123,593.404759 263.80514,592.069444 Z" id="Oval-2" stroke="#1A6FFF" stroke-width="4" opacity="0.100000001" transform="translate(198.994644, 513.999441) rotate(-129.000000) translate(-198.994644, -513.999441) "></path>
                        <text id="+" opacity="0.365959821" transform="translate(382.011581, 868.260495) rotate(-82.000000) translate(-382.011581, -868.260495) " font-family="AmericanTypewriter, American Typewriter" font-size="50" font-weight="normal" letter-spacing="5.357144" fill="#006CFF">
                            <tspan x="375.011581" y="884.260495">+</tspan>
                        </text>
                        <text id="+" opacity="0.100000001" transform="translate(392.809736, 1025.031944) rotate(-269.000000) translate(-392.809736, -1025.031944) " font-family="AmericanTypewriter, American Typewriter" font-size="50" font-weight="normal" letter-spacing="5.357144" fill="#006CFF">
                            <tspan x="385.809736" y="1041.03194">+</tspan>
                        </text>
                        <text id="+" opacity="0.100000001" transform="translate(357.451248, 701.978687) rotate(-29.000000) translate(-357.451248, -701.978687) " font-family="AmericanTypewriter, American Typewriter" font-size="50" font-weight="normal" letter-spacing="5.357144" fill="#006CFF">
                            <tspan x="349.951248" y="717.978687">+</tspan>
                        </text>
                    </g>
                </g>
            </g>
        </g>
    </g>
</svg>